<?xml version="1.0" standalone="no"?>
<svg viewBox="0 0 200 200" xmlns="http://www.w3.org/2000/svg" width="270px" height="230px">
  <path fill="#568C6D" d="M37.8,-60.7C46.8,-53,50.4,-38.8,56.2,-25.8C62.1,-12.7,70.2,-0.7,72.3,13C74.4,26.7,70.3,42.1,61.9,55.8C53.4,69.5,40.4,81.6,26.9,80.5C13.4,79.4,-0.8,65.1,-16.4,59.1C-32,53,-49.1,55.2,-61.2,48.8C-73.4,42.4,-80.7,27.5,-83.5,11.7C-86.3,-4.2,-84.5,-21,-76.1,-32.8C-67.6,-44.5,-52.4,-51.2,-38.6,-56.7C-24.8,-62.1,-12.4,-66.3,1,-67.9C14.4,-69.4,28.8,-68.3,37.8,-60.7Z" transform="translate(100 100)" />
</svg>
