<?xml version="1.0" standalone="no"?>
<svg viewBox="0 0 200 200" xmlns="http://www.w3.org/2000/svg">
  <path fill="#5E8C7F" d="M37.2,-56.4C48.5,-50.6,58.1,-40.8,63.5,-29C68.8,-17.3,69.7,-3.5,69.6,11.3C69.5,26.2,68.3,42.2,59.5,50.5C50.7,58.9,34.2,59.7,19.3,62.5C4.4,65.4,-8.8,70.4,-19.1,66.7C-29.4,62.9,-36.6,50.4,-45.5,39.7C-54.4,28.9,-65.1,19.9,-69.2,8.4C-73.2,-3.1,-70.8,-17.2,-64.6,-29C-58.5,-40.9,-48.6,-50.6,-37.2,-56.3C-25.8,-62.1,-12.9,-64,0,-64C12.9,-64,25.9,-62.2,37.2,-56.4Z" transform="translate(100 100)" />
</svg>
